<svg xmlns="http://www.w3.org/2000/svg" viewBox="0 0 760 520">
  <defs>
    <filter id="paper">
      <feTurbulence type="fractalNoise" baseFrequency=".72" numOctaves="3" seed="4"/>
      <feColorMatrix type="saturate" values="0"/>
      <feComponentTransfer><feFuncA type="table" tableValues="0 .16"/></feComponentTransfer>
    </filter>
    <linearGradient id="land" x1="0" y1="0" x2="1" y2="1">
      <stop offset="0%" stop-color="#d7bd8d"/>
      <stop offset="100%" stop-color="#a9814f"/>
    </linearGradient>
  </defs>

  <rect width="760" height="520" rx="24" fill="#2a2016"/>
  <rect x="18" y="18" width="724" height="484" rx="18" fill="#cfb17b"/>
  <rect x="18" y="18" width="724" height="484" rx="18" filter="url(#paper)"/>
  <path d="M185 115 C250 55 375 70 425 116 C500 185 550 220 590 305 C630 394 545 455 455 430 C390 412 342 468 267 425 C193 382 205 330 150 285 C97 242 125 170 185 115 Z" fill="url(#land)" stroke="#5e4428" stroke-width="5"/>
  <path d="M252 135 C330 160 390 150 454 200 C502 238 530 292 512 345" fill="none" stroke="#5e4428" stroke-width="3" stroke-dasharray="9 9" opacity=".45"/>
  <path d="M188 280 C250 250 315 300 382 276 C430 258 455 234 500 248" fill="none" stroke="#5e4428" stroke-width="3" stroke-dasharray="8 8" opacity=".35"/>
  <circle cx="312" cy="250" r="13" fill="#8f3326"/>
  <circle cx="312" cy="250" r="29" fill="none" stroke="#8f3326" stroke-width="3" opacity=".45"/>
  <text x="312" y="218" text-anchor="middle" fill="#3d2b19" font-family="Georgia,serif" font-size="24" font-weight="700">AL-YAD</text>
  <text x="380" y="58" text-anchor="middle" fill="#3d2b19" font-family="Georgia,serif" font-size="34" font-weight="700" letter-spacing="5">ADIRIEN</text>
  <text x="555" y="455" fill="#3d2b19" font-family="Georgia,serif" font-size="18" font-weight="700">Lagekarte</text>
  <g transform="translate(80 390)">
    <path d="M0 -46 L14 -14 L48 0 L14 14 L0 46 L-14 14 L-48 0 L-14 -14 Z" fill="none" stroke="#3d2b19" stroke-width="3"/>
    <text x="0" y="6" text-anchor="middle" fill="#3d2b19" font-family="Georgia,serif" font-size="15" font-weight="700">N</text>
  </g>
</svg>