<svg xmlns="http://www.w3.org/2000/svg" viewBox="0 0 520 620">
  <defs>
    <linearGradient id="bg" x1="0" y1="0" x2="1" y2="1">
      <stop offset="0%" stop-color="#3b2c1e"/>
      <stop offset="100%" stop-color="#17100b"/>
    </linearGradient>
    <linearGradient id="cloth" x1="0" y1="0" x2="0" y2="1">
      <stop offset="0%" stop-color="#6e7653"/>
      <stop offset="100%" stop-color="#292f20"/>
    </linearGradient>
    <filter id="shadow">
      <feDropShadow dx="0" dy="10" stdDeviation="10" flood-color="#000" flood-opacity=".5"/>
    </filter>
  </defs>

  <rect width="520" height="620" rx="28" fill="url(#bg)"/>
  <rect x="22" y="22" width="476" height="576" rx="20" fill="none" stroke="#c8a96a" stroke-opacity=".25" stroke-width="2"/>
  <path d="M70 494 C150 390, 370 390, 450 494 L450 620 L70 620 Z" fill="url(#cloth)" filter="url(#shadow)"/>
  <path d="M160 455 C195 430, 325 430, 360 455 L390 620 L130 620 Z" fill="#333b28" opacity=".85"/>
  <circle cx="260" cy="221" r="100" fill="#17100b" filter="url(#shadow)"/>
  <path d="M160 220 C178 130, 342 130, 360 220 C330 190, 190 190, 160 220 Z" fill="#20170f"/>
  <path d="M178 230 C210 270, 310 270, 342 230 C326 324, 194 324, 178 230 Z" fill="#120d09"/>
  <path d="M155 202 C210 175, 305 174, 366 204 L354 163 C309 121, 217 121, 168 163 Z" fill="#4f583d"/>
  <path d="M160 201 C220 217, 300 217, 360 201" stroke="#879165" stroke-width="16" stroke-linecap="round"/>
  <path d="M122 555 L398 555" stroke="#c8a96a" stroke-opacity=".22" stroke-width="2"/>
  <text x="260" y="72" text-anchor="middle" fill="#c8a96a" font-family="Georgia,serif" font-size="28" font-weight="700" letter-spacing="4">NICO HILLS</text>
  <text x="260" y="584" text-anchor="middle" fill="#c8a96a" font-family="Georgia,serif" font-size="20" font-weight="700" letter-spacing="3">AL-YAD</text>
</svg>